<svg version="1" xmlns="http://www.w3.org/2000/svg" width="933.333" height="933.333" viewBox="0 0 700.000000 700.000000"><path d="M60.5 2C36.2 9.2 21.2 33.1 25.4 57.6c2.1 12 10.3 24.8 20 31.5l3.6 2.4v267.2c0 213.1-.3 267.3-1.2 267.4-.7 0-6.3.1-12.3.1l-11 .1v17.9c.1 9.9-.2 18.1-.5 18.3-.4.2-4.6.5-9.5.6-8.3.2-9.1.4-11.7 3L0 668.8V700h73.4c57.8 0 73.5-.3 73.8-1.3 1-3.1.1-28.8-1.2-31.1-1.9-3.7-5.8-4.8-14.9-4.4l-8.1.3v-37.2l-12.2.1H98.5l-.1-68.2c0-38.7.3-67.9.8-67.6.5.3 88.8.6 196.3.5H491V565h209l-.3-202.7-.2-202.7h-74.2c-40.9 0-73.9-.2-73.5-.5.5-.3.8-16.8.8-36.6l-.1-36-222.7-.3C182.4 86.1 107 85.7 107 85c0-.6.4-1 .8-1 1 0 7.4-8.6 9.7-13.1 6.8-12.9 6.6-31.7-.5-44.4-6.7-12.1-16.2-20.1-28.9-24.2C81 0 67.7-.1 60.5 2zM553 196c0 .5-.5 1-1.1 1-.5 0-.7-.5-.4-1 .3-.6.8-1 1.1-1 .2 0 .4.4.4 1z"/></svg>