<svg width="114" height="114" viewBox="0 0 114 114" xmlns="http://www.w3.org/2000/svg"><title>k50</title><g fill="none" fill-rule="evenodd"><path d="M80 86h34v6H80v-6z" fill="#C03A2B"/><path d="M80 80h34v6H80v-6z" fill="#D1D4D1"/><path d="M24 114H0v-4.594C0 108.63.63 108 1.406 108h21.188c.776 0 1.406.63 1.406 1.406V114" fill="#556080"/><path d="M4 102h16v6H4v-6z" fill="#8697CB"/><path d="M14 62c0 1.106.894 2 2 2v-4c-1.106 0-2 .894-2 2" fill="#0096E6"/><path d="M8 14h8v88H8V14z" fill="#556080"/><path d="M16 14h40v36H16V14z" fill="#285680"/><path d="M27.986 18.558l1.858 3.766 4.156.604-3.008 2.932.71 4.14-3.716-1.954L24.268 30l.71-4.14-3.008-2.932 4.156-.604 1.86-3.766M44.014 18l1.86 3.766 4.156.604-3.008 2.932.71 4.14-3.718-1.956-3.716 1.956.71-4.14L38 22.37l4.156-.604L44.014 18M27.986 32.558l1.858 3.766 4.156.604-3.008 2.932.71 4.14-3.716-1.954L24.268 44l.71-4.14-3.008-2.932 4.156-.604 1.86-3.766M44.014 32l1.86 3.766 4.156.604-3.008 2.932.71 4.14-3.718-1.956-3.716 1.956.71-4.14L38 36.37l4.156-.604L44.014 32" fill="#FFF"/><path d="M20 8A8 8 0 1 1 4 8a8 8 0 0 1 16 0" fill="#F0C419"/><path d="M80 92V80h10L80 92" fill="#701919"/><path d="M56 14h34v6H56v-6z" fill="#ECF0F1"/><path d="M56 20h34v6H56v-6z" fill="#E64C3C"/><path d="M56 26h34v6H56v-6z" fill="#ECF0F1"/><path d="M56 32h34v6H56v-6z" fill="#E64C3C"/><path d="M56 38h34v6H56v-6z" fill="#ECF0F1"/><path d="M56 44h34v6H56v-6z" fill="#E64C3C"/><path d="M90 26h24v6H90v-6z" fill="#C03A2B"/><path d="M90 32h24v6H90v-6z" fill="#D1D4D1"/><path d="M90 38h24v6H90v-6z" fill="#C03A2B"/><path d="M90 44h24v6H90v-6z" fill="#D1D4D1"/><path d="M90 50h24v6H90v-6z" fill="#C03A2B"/><path d="M90 56h24v6H90v-6z" fill="#D1D4D1"/><path d="M90 62h24v6H90v-6zm0 12h24v6H90v-6z" fill="#C03A2B"/><path d="M90 68h24v6H90v-6z" fill="#D1D4D1"/><path d="M16 50h74v6H16v-6z" fill="#ECF0F1"/><path d="M16 56h74v6H16v-6z" fill="#E64C3C"/><path d="M16 62h74v6H16v-6z" fill="#ECF0F1"/><path d="M16 68h74v6H16v-6z" fill="#E64C3C"/><path d="M16 74h74v6H16v-6z" fill="#ECF0F1"/></g></svg>