<?xml version="1.0" standalone="no"?>
<!DOCTYPE svg PUBLIC "-//W3C//DTD SVG 20010904//EN"
 "http://www.w3.org/TR/2001/REC-SVG-20010904/DTD/svg10.dtd">
<svg version="1.0" xmlns="http://www.w3.org/2000/svg"
 width="700.000000pt" height="700.000000pt" viewBox="0 0 700.000000 700.000000"
 preserveAspectRatio="xMidYMid meet">
<metadata>
Created by potrace 1.11, written by Peter Selinger 2001-2013
</metadata>
<g transform="translate(0.000000,700.000000) scale(0.100000,-0.100000)"
fill="#000000" stroke="none">
<path d="M605 6980 c-243 -72 -393 -311 -351 -556 21 -120 103 -248 200 -315
l36 -24 0 -2672 c0 -2131 -3 -2673 -12 -2674 -7 0 -63 -1 -123 -1 l-110 -1 0
-179 c1 -99 -2 -181 -5 -183 -4 -2 -46 -5 -95 -6 -83 -2 -91 -4 -117 -30 l-28
-27 0 -156 0 -156 734 0 c578 0 735 3 738 13 10 31 1 288 -12 311 -19 37 -58
48 -149 44 l-81 -3 0 186 0 186 -122 -1 -123 0 -1 682 c0 387 3 679 8 676 5
-3 888 -6 1963 -5 l1955 0 0 -370 0 -369 1045 0 1045 0 -3 2027 -2 2027 -742
0 c-409 0 -739 2 -735 5 5 3 8 168 8 366 l-1 360 -2227 3 c-1474 1 -2228 5
-2228 12 0 6 4 10 8 10 10 0 74 86 97 131 68 129 66 317 -5 444 -67 121 -162
201 -289 242 -71 23 -204 24 -276 3z m4925 -1940 c0 -5 -5 -10 -11 -10 -5 0
-7 5 -4 10 3 6 8 10 11 10 2 0 4 -4 4 -10z"/>
</g>
</svg>
