<?xml version="1.0" encoding="UTF-8" standalone="no"?>
<svg width="114px" height="114px" viewBox="0 0 114 114" version="1.1" xmlns="http://www.w3.org/2000/svg" xmlns:xlink="http://www.w3.org/1999/xlink" xmlns:sketch="http://www.bohemiancoding.com/sketch/ns">
    <!-- Generator: Sketch 3.3.2 (12043) - http://www.bohemiancoding.com/sketch -->
    <title>k50</title>
    <desc>Created with Sketch.</desc>
    <defs></defs>
    <g id="Page-1" stroke="none" stroke-width="1" fill="none" fill-rule="evenodd" sketch:type="MSPage">
        <g id="k50" sketch:type="MSLayerGroup">
            <path d="M80,86 L114,86 L114,92 L80,92 L80,86 Z" id="Fill-1" fill="#C03A2B" sketch:type="MSShapeGroup"></path>
            <path d="M80,80 L114,80 L114,86 L80,86 L80,80 Z" id="Fill-2" fill="#D1D4D1" sketch:type="MSShapeGroup"></path>
            <path d="M24,114 L0,114 L0,109.406 C0,108.63 0.63,108 1.406,108 L22.594,108 C23.37,108 24,108.63 24,109.406 L24,114" id="Fill-510" fill="#556080" sketch:type="MSShapeGroup"></path>
            <path d="M4,102 L20,102 L20,108 L4,108 L4,102 Z" id="Fill-511" fill="#8697CB" sketch:type="MSShapeGroup"></path>
            <path d="M14,62 C14,63.106 14.894,64 16,64 L16,60 C14.894,60 14,60.894 14,62" id="Fill-515" fill="#0096E6" sketch:type="MSShapeGroup"></path>
            <path d="M8,14 L16,14 L16,102 L8,102 L8,14 Z" id="Fill-516" fill="#556080" sketch:type="MSShapeGroup"></path>
            <path d="M16,14 L56,14 L56,50 L16,50 L16,14 Z" id="Fill-809" fill="#285680" sketch:type="MSShapeGroup"></path>
            <path d="M27.986,18.558 L29.844,22.324 L34,22.928 L30.992,25.86 L31.702,30 L27.986,28.046 L24.268,30 L24.978,25.86 L21.97,22.928 L26.126,22.324 L27.986,18.558" id="Fill-810" fill="#FFFFFF" sketch:type="MSShapeGroup"></path>
            <path d="M44.014,18 L45.874,21.766 L50.03,22.37 L47.022,25.302 L47.732,29.442 L44.014,27.486 L40.298,29.442 L41.008,25.302 L38,22.37 L42.156,21.766 L44.014,18" id="Fill-811" fill="#FFFFFF" sketch:type="MSShapeGroup"></path>
            <path d="M27.986,32.558 L29.844,36.324 L34,36.928 L30.992,39.86 L31.702,44 L27.986,42.046 L24.268,44 L24.978,39.86 L21.97,36.928 L26.126,36.324 L27.986,32.558" id="Fill-812" fill="#FFFFFF" sketch:type="MSShapeGroup"></path>
            <path d="M44.014,32 L45.874,35.766 L50.03,36.37 L47.022,39.302 L47.732,43.442 L44.014,41.486 L40.298,43.442 L41.008,39.302 L38,36.37 L42.156,35.766 L44.014,32" id="Fill-813" fill="#FFFFFF" sketch:type="MSShapeGroup"></path>
            <path d="M20,8 C20,12.418 16.418,16 12,16 C7.582,16 4,12.418 4,8 C4,3.582 7.582,0 12,0 C16.418,0 20,3.582 20,8" id="Fill-814" fill="#F0C419" sketch:type="MSShapeGroup"></path>
            <path d="M80,92 L80,80 L90,80 L80,92" id="Fill-907" fill="#701919" sketch:type="MSShapeGroup"></path>
            <path d="M56,14 L90,14 L90,20 L56,20 L56,14 Z" id="Fill-915" fill="#ECF0F1" sketch:type="MSShapeGroup"></path>
            <path d="M56,20 L90,20 L90,26 L56,26 L56,20 Z" id="Fill-916" fill="#E64C3C" sketch:type="MSShapeGroup"></path>
            <path d="M56,26 L90,26 L90,32 L56,32 L56,26 Z" id="Fill-917" fill="#ECF0F1" sketch:type="MSShapeGroup"></path>
            <path d="M56,32 L90,32 L90,38 L56,38 L56,32 Z" id="Fill-918" fill="#E64C3C" sketch:type="MSShapeGroup"></path>
            <path d="M56,38 L90,38 L90,44 L56,44 L56,38 Z" id="Fill-919" fill="#ECF0F1" sketch:type="MSShapeGroup"></path>
            <path d="M56,44 L90,44 L90,50 L56,50 L56,44 Z" id="Fill-920" fill="#E64C3C" sketch:type="MSShapeGroup"></path>
            <path d="M90,26 L114,26 L114,32 L90,32 L90,26 Z" id="Fill-921" fill="#C03A2B" sketch:type="MSShapeGroup"></path>
            <path d="M90,32 L114,32 L114,38 L90,38 L90,32 Z" id="Fill-922" fill="#D1D4D1" sketch:type="MSShapeGroup"></path>
            <path d="M90,38 L114,38 L114,44 L90,44 L90,38 Z" id="Fill-923" fill="#C03A2B" sketch:type="MSShapeGroup"></path>
            <path d="M90,44 L114,44 L114,50 L90,50 L90,44 Z" id="Fill-924" fill="#D1D4D1" sketch:type="MSShapeGroup"></path>
            <path d="M90,50 L114,50 L114,56 L90,56 L90,50 Z" id="Fill-925" fill="#C03A2B" sketch:type="MSShapeGroup"></path>
            <path d="M90,56 L114,56 L114,62 L90,62 L90,56 Z" id="Fill-926" fill="#D1D4D1" sketch:type="MSShapeGroup"></path>
            <path d="M90,62 L114,62 L114,68 L90,68 L90,62 Z" id="Fill-927" fill="#C03A2B" sketch:type="MSShapeGroup"></path>
            <path d="M90,74 L114,74 L114,80 L90,80 L90,74 Z" id="Fill-928" fill="#C03A2B" sketch:type="MSShapeGroup"></path>
            <path d="M90,68 L114,68 L114,74 L90,74 L90,68 Z" id="Fill-929" fill="#D1D4D1" sketch:type="MSShapeGroup"></path>
            <path d="M16,50 L90,50 L90,56 L16,56 L16,50 Z" id="Fill-930" fill="#ECF0F1" sketch:type="MSShapeGroup"></path>
            <path d="M16,56 L90,56 L90,62 L16,62 L16,56 Z" id="Fill-931" fill="#E64C3C" sketch:type="MSShapeGroup"></path>
            <path d="M16,62 L90,62 L90,68 L16,68 L16,62 Z" id="Fill-932" fill="#ECF0F1" sketch:type="MSShapeGroup"></path>
            <path d="M16,68 L90,68 L90,74 L16,74 L16,68 Z" id="Fill-933" fill="#E64C3C" sketch:type="MSShapeGroup"></path>
            <path d="M16,74 L90,74 L90,80 L16,80 L16,74 Z" id="Fill-934" fill="#ECF0F1" sketch:type="MSShapeGroup"></path>
        </g>
    </g>
</svg>